<svg xmlns="http://www.w3.org/2000/svg" viewBox="0 0 142.6 32" enable-background="new 0 0 142.6 32"><path opacity=".65" fill="#383334" enable-background="new" d="M27.9 12.1c-.3-3.6-3.4-6.5-7.1-6.5-2.9 0-5.3 1.7-6.5 4.2-.3-.1-.7-.2-1.1-.2-2 0-3.6 1.6-3.6 3.6 0 .4.1.8.2 1.1-1.5.9-2.6 2.5-2.6 4.4 0 2.8 2.3 5.2 5.2 5.2h14.3c3.3 0 6-2.7 6-6 .1-2.9-2-5.3-4.8-5.8zm-6.5 4.2v4.4h-2.7v-4.4c-.8-.5-1.3-1.3-1.3-2.3 0-1.5 1.2-2.7 2.7-2.7 1.5 0 2.7 1.2 2.7 2.7 0 1-.6 1.8-1.4 2.3z"/><text transform="translate(38.99 23.375)" fill="#383334" font-family="'BrandonGrotesque-Medium'" font-size="10.684">C</text><text transform="translate(46.298 23.375)" fill="#383334" font-family="'BrandonGrotesque-Medium'" font-size="10.684">O</text><text transform="translate(54.632 23.375)" fill="#383334" font-family="'BrandonGrotesque-Medium'" font-size="10.684">MMONS CLOUD</text><text transform="translate(40.375 12.875)" fill="#383334" font-family="'BrandonGrotesque-Medium'" font-size="8" opacity=".64">SECURED BY</text></svg>