<?xml version="1.0" encoding="utf-8"?>
<!-- Generator: Adobe Illustrator 18.0.0, SVG Export Plug-In . SVG Version: 6.00 Build 0)  -->
<!DOCTYPE svg PUBLIC "-//W3C//DTD SVG 1.1//EN" "http://www.w3.org/Graphics/SVG/1.1/DTD/svg11.dtd">
<svg version="1.1" id="Layer_1" xmlns="http://www.w3.org/2000/svg" xmlns:xlink="http://www.w3.org/1999/xlink" x="0px" y="0px"
	 viewBox="0 0 142.6 32" enable-background="new 0 0 142.6 32" xml:space="preserve">
<path opacity="0.65" fill="#383334" enable-background="new    " d="M27.9,12.1c-0.3-3.6-3.4-6.5-7.1-6.5c-2.9,0-5.3,1.7-6.5,4.2
	c-0.3-0.1-0.7-0.2-1.1-0.2c-2,0-3.6,1.6-3.6,3.6c0,0.4,0.1,0.8,0.2,1.1c-1.5,0.9-2.6,2.5-2.6,4.4c0,2.8,2.3,5.2,5.2,5.2h14.3
	c3.3,0,6-2.7,6-6C32.8,15,30.7,12.6,27.9,12.1z M21.4,16.3v4.4h-2.7v-4.4c-0.8-0.5-1.3-1.3-1.3-2.3c0-1.5,1.2-2.7,2.7-2.7
	c1.5,0,2.7,1.2,2.7,2.7C22.8,15,22.2,15.8,21.4,16.3z"/>
<text transform="matrix(1 0 0 1 38.9902 23.375)" fill="#383334" font-family="'BrandonGrotesque-Medium'" font-size="10.6844">C</text>
<text transform="matrix(1 0 0 1 46.2982 23.375)" fill="#383334" font-family="'BrandonGrotesque-Medium'" font-size="10.6844">O</text>
<text transform="matrix(1 0 0 1 54.6322 23.375)" fill="#383334" font-family="'BrandonGrotesque-Medium'" font-size="10.6844">MMONS CLOUD</text>
<g opacity="0.64">
	<text transform="matrix(1 0 0 1 40.375 12.875)" fill="#383334" font-family="'BrandonGrotesque-Medium'" font-size="8">SECURED BY</text>
</g>
<text transform="matrix(1 0 0 1 135.375 7)" display="none" fill="#383334" enable-background="new    " font-family="'BrandonGrotesque-Medium'" font-size="10.6844">C</text>
<text transform="matrix(1 0 0 1 0 7)" display="none" fill="#383334" enable-background="new    " font-family="'BrandonGrotesque-Medium'" font-size="10.6844">C</text>
<text transform="matrix(1 0 0 1 135.375 32)" display="none" fill="#383334" enable-background="new    " font-family="'BrandonGrotesque-Medium'" font-size="10.6844">C</text>
<text transform="matrix(1 0 0 1 0 32)" display="none" fill="#383334" enable-background="new    " font-family="'BrandonGrotesque-Medium'" font-size="10.6844">C</text>
</svg>
