<svg xmlns="http://www.w3.org/2000/svg" width="128" height="32" viewBox="0 0 128 32"><text transform="translate(30.615 23.375)" opacity=".64"><tspan x="0" y="0" fill="#383334" font-family="'BrandonGrotesque-Bold'" font-size="10.684">C</tspan><tspan x="7.308" y="0" fill="#383334" font-family="'BrandonGrotesque-Bold'" font-size="10.684">O</tspan><tspan x="15.642" y="0" fill="#383334" font-family="'BrandonGrotesque-Bold'" font-size="10.684">MMONS CLOUD</tspan></text><text transform="translate(31 11.875)" fill="#383334" font-family="'BrandonGrotesque-Regular'" font-size="8" opacity=".64">SECURED BY</text><g fill="#383334" opacity=".64"><path d="M13.94 11.48c-1.51 0-1.506 1.196-1.51 1.513v1.133h3.022v-1.133c-.003-.312 0-1.512-1.51-1.512zM13.94 15.638c-.416 0-.754.338-.754.756 0 .278.153.52.378.65v1.238h.755v-1.237c.224-.132.377-.373.377-.65 0-.42-.338-.757-.756-.757zM21.056 12.472C20.74 9.2 18.016 6.63 14.66 6.63c-2.596 0-4.822 1.54-5.844 3.754-.31-.1-.632-.17-.972-.17-1.784 0-3.23 1.452-3.23 3.233 0 .355.07.687.176 1.008-1.387.81-2.33 2.293-2.33 4.015 0 2.572 2.09 4.664 4.665 4.664h12.918c2.972 0 5.38-2.412 5.38-5.385 0-2.623-1.88-4.803-4.367-5.278zm-3.336 6.943h-7.556v-5.29h1.133v-1.133s0-2.645 2.645-2.645c2.646 0 2.646 2.645 2.646 2.645v1.134h1.133v5.29z"/></g></svg>