<?xml version="1.0" encoding="utf-8"?>
<!-- Generator: Adobe Illustrator 15.0.2, SVG Export Plug-In . SVG Version: 6.00 Build 0)  -->
<!DOCTYPE svg PUBLIC "-//W3C//DTD SVG 1.1//EN" "http://www.w3.org/Graphics/SVG/1.1/DTD/svg11.dtd">
<svg version="1.1" id="Layer_1" xmlns="http://www.w3.org/2000/svg" xmlns:xlink="http://www.w3.org/1999/xlink" x="0px" y="0px"
	 width="128px" height="32px" viewBox="0 0 128 32" enable-background="new 0 0 128 32" xml:space="preserve">
<text transform="matrix(1 0 0 1 30.6152 23.375)" opacity="0.64"><tspan x="0" y="0" fill="#383334" font-family="'BrandonGrotesque-Bold'" font-size="10.6844">C</tspan><tspan x="7.308" y="0" fill="#383334" font-family="'BrandonGrotesque-Bold'" font-size="10.6844">O</tspan><tspan x="15.642" y="0" fill="#383334" font-family="'BrandonGrotesque-Bold'" font-size="10.6844">MMONS CLOUD</tspan></text>
<g opacity="0.64">
	<text transform="matrix(1 0 0 1 31 11.875)" fill="#383334" font-family="'BrandonGrotesque-Regular'" font-size="8">SECURED BY</text>
</g>
<g opacity="0.64">
	<g>
		<path fill="#383334" d="M13.941,11.481c-1.512,0-1.507,1.195-1.512,1.512v1.133h3.023v-1.133
			C15.449,12.681,15.453,11.481,13.941,11.481z"/>
		<path fill="#383334" d="M13.941,15.638c-0.417,0-0.755,0.338-0.755,0.756c0,0.278,0.153,0.52,0.378,0.651v1.237h0.755v-1.237
			c0.225-0.132,0.378-0.373,0.378-0.651C14.697,15.976,14.359,15.638,13.941,15.638z"/>
		<path fill="#383334" d="M21.056,12.472c-0.315-3.272-3.041-5.843-6.397-5.843c-2.595,0-4.821,1.541-5.843,3.755
			c-0.31-0.101-0.632-0.17-0.972-0.17c-1.784,0-3.229,1.452-3.229,3.233c0,0.355,0.07,0.687,0.175,1.008
			c-1.387,0.809-2.33,2.293-2.33,4.015c0,2.572,2.09,4.664,4.665,4.664h12.918c2.972,0,5.381-2.412,5.381-5.385
			C25.424,15.127,23.542,12.947,21.056,12.472z M17.72,19.415h-7.556v-5.289h1.133v-1.134c0,0,0.001-2.645,2.645-2.645
			c2.646,0,2.646,2.645,2.646,2.645v1.134h1.133V19.415z"/>
	</g>
</g>
</svg>
